<svg width="500" height="500" viewBox="0 0 500 500" fill="none" xmlns="http://www.w3.org/2000/svg">
<path d="M235.549 0H264.35C266.378 0.76875 271.94 0.93325 274.297 1.12111C277.36 1.37366 280.417 1.70185 283.465 2.10539C294.967 3.69217 306.352 6.02953 317.55 9.10248C385.827 28.3513 442.775 75.5902 474.307 139.137C485.327 161.379 492.93 185.157 496.858 209.667C497.725 215.038 498.407 220.438 498.9 225.856C499.137 228.229 499.457 233.495 500 235.573V264.617C499.433 266.877 499.33 269.603 499.117 271.945C498.8 275.52 498.435 279.09 498.022 282.658C496.672 292.883 494.712 303.02 492.155 313.015C476.197 374.223 437.65 427.115 384.27 461.052C357.212 478.387 327.015 490.245 295.392 495.957C290.742 496.875 286.058 497.61 281.35 498.16C278.66 498.468 267.205 499.447 265.633 500H235.053C233.622 499.478 225.025 498.87 222.706 498.622C218.297 498.172 213.904 497.567 209.537 496.81C183.749 492.645 158.782 484.425 135.562 472.46C83.962 445.85 43.1927 402.163 20.2088 348.85C15.7736 338.77 12.0722 328.385 9.13323 317.775C6.0919 306.605 3.76225 295.258 2.15832 283.793C1.66537 280.093 1.27081 276.38 0.975057 272.658C0.79471 270.55 0.677615 266.227 0 264.362V235.795C0.557492 234.162 1.08404 226.005 1.2781 223.939C1.71926 219.255 2.33486 214.589 3.1236 209.951C7.25037 183.915 15.5343 158.71 27.6585 135.303C59.5748 73.5415 115.694 27.7983 182.622 8.99065C193.785 5.9718 205.131 3.67015 216.589 2.09976C220.137 1.63771 223.697 1.27051 227.266 0.99854C229.383 0.8234 233.67 0.677285 235.549 0Z" fill="#1B281A"/>
<path d="M140.758 160.725L167.382 160.682C185.336 160.673 203.663 159.494 217.708 173.269C227.231 182.61 229.726 194.066 229.785 206.943L229.792 231.956C229.804 249.314 230.673 262.797 217.297 276.297C202.898 289.405 186.211 288.385 168.323 288.378L140.779 288.388L140.758 160.725Z" fill="#DCDDDB"/>
<path d="M158.787 177.751L173.666 177.747C184.038 177.755 195.477 177.453 203.66 185.068C209.478 190.483 211.46 198.146 211.474 205.859C211.487 213.301 211.515 220.796 211.498 228.244C211.089 241.597 213.904 253.3 203.868 263.8C195.469 271.74 184.885 271.312 174.293 271.31L158.779 271.275L158.787 177.751Z" fill="#1B281A"/>
<path d="M277.642 140.471L310.54 140.446C323.053 140.445 335.443 139.124 346.858 145.076C368.845 156.544 371.545 190.94 354.96 207.971C343.787 219.443 330.24 218.579 315.625 218.545L295.747 218.538C295.392 234.819 295.755 251.783 295.672 268.14C289.8 267.968 283.717 268.208 277.735 268.04C277.562 263.418 277.682 258.035 277.682 253.355L277.642 140.471Z" fill="#DCDDDB"/>
<path d="M295.763 157.48L317.283 157.487C321.94 157.477 327.337 157.168 331.862 157.968C343.977 160.111 348.308 172.668 346.823 183.628C346.138 188.671 344.7 191.835 341.51 195.817C334.353 202.959 325.248 201.531 315.883 201.521L295.74 201.489C295.442 191.418 295.75 181.236 295.64 171.153C295.593 166.614 295.635 162.015 295.763 157.48Z" fill="#1B281A"/>
<path d="M269.242 231.906L269.487 231.951C269.642 232.82 259.575 254.27 258.307 257.062L228.045 323.277L277.675 323.323C277.527 319.303 277.677 314.28 277.682 310.18L277.64 284.48C283.523 284.37 289.405 284.375 295.285 284.495C295.183 297.427 295.17 310.36 295.245 323.293L304.78 323.323L304.772 339.967C301.977 340.105 298.13 339.998 295.25 340.008C295.362 346.423 295.268 353.083 295.258 359.515C289.43 359.5 283.602 359.52 277.775 359.578C277.692 352.995 277.678 346.412 277.733 339.83C270.33 340.182 260.873 339.938 253.288 339.938L208.518 339.943C208.479 335.558 208.201 328.68 208.726 324.448C208.912 322.958 212.098 316.44 212.958 314.59L220.871 297.562L251.225 231.982C257.07 231.757 263.285 232.053 269.242 231.906Z" fill="#DCDDDB"/>
<path d="M344.703 323.293C350.398 323.56 357.342 323.223 363.302 323.353C363.365 328.638 363.432 334.603 363.242 339.85C357.212 340.013 350.813 339.932 344.765 339.935C344.478 335.485 344.698 327.94 344.703 323.293Z" fill="#DCDDDB"/>
</svg>
